Coordinates
version=1
nRows=26
nColumns=24
inDegrees=yes

Units are S.I. units (second, meters, Newtons, ...)
Angles are in degrees.

endheader
time	pelvis_tilt	pelvis_list	pelvis_rotation	pelvis_tx	pelvis_ty	pelvis_tz	hip_flexion_r	hip_adduction_r	hip_rotation_r	knee_angle_r	ankle_angle_r	subtalar_angle_r	mtp_angle_r	hip_flexion_l	hip_adduction_l	hip_rotation_l	knee_angle_l	ankle_angle_l	subtalar_angle_l	mtp_angle_l	lumbar_extension	lumbar_bending	lumbar_rotation
      1.00450000	     -8.47300545	     -1.76665395	     -5.54835933	      0.05159776	      1.01450534	      0.29559305	     -8.94641653	      2.75205845	      1.27809790	    -13.51828159	     20.32178516	      5.34028127	      6.97674688	     36.62563029	     -5.34246102	     -2.67936121	     -6.03801123	     10.06597055	      7.01580820	      3.60871765	     -6.82711428	      4.02280640	      6.53749160
      1.00866667	     -8.48342976	     -1.68247661	     -5.67214366	      0.05808539	      1.01377495	      0.29525915	     -9.03235637	      2.55480461	      1.24467325	    -14.06487646	     20.20915095	      5.58516224	      7.31443482	     36.64760545	     -5.24717437	     -2.47681595	     -6.65677938	      9.71242476	      6.66783790	      3.69070926	     -6.77457224	      3.84265546	      6.60229095
      1.01283333	     -8.47394736	     -1.58552934	     -5.81067142	      0.06462674	      1.01316023	      0.29498993	     -9.14234221	      2.34914937	      1.30171746	    -14.59488546	     19.93509939	      5.63697539	      7.39830475	     36.65450250	     -5.16035947	     -2.44463603	     -7.31685634	      9.34694934	      6.54098489	      3.70620560	     -6.72119952	      3.63934873	      6.58137829
      1.01700000	     -8.52480282	     -1.46719236	     -5.93132116	      0.07116864	      1.01246334	      0.29463048	     -9.13749475	      2.11393068	      1.23008684	    -15.22700039	     19.79477596	      5.94164788	      7.81926342	     36.71709482	     -5.03277929	     -2.25305733	     -7.96803801	      8.88127561	      6.12063488	      3.79808225	     -6.59671294	      3.39903819	      6.65204725
      1.02116667	     -8.53168278	     -1.35896115	     -6.04658312	      0.07772471	      1.01192640	      0.29430906	     -9.19348777	      1.89871652	      1.26300116	    -15.80876969	     19.37385543	      5.93484190	     11.68208281	     36.74046990	     -4.91999929	     -2.14379765	     -8.64301275	      8.37291514	      5.83911450	      4.66895164	     -6.53398711	      3.18076602	      6.60768361
      1.02533333	     -8.55955869	     -1.22677254	     -6.16182806	      0.08429626	      1.01138811	      0.29395763	     -9.18312605	      1.65104656	      1.22429389	    -16.48551111	     19.09456437	      6.12698995	     11.75137128	     36.81004975	     -4.79123059	     -2.11524259	     -9.38427212	      7.91913708	      5.61993560	      4.66683994	     -6.43041442	      2.92235800	      6.63645090
      1.02950000	     -8.56592662	     -1.09404349	     -6.26460611	      0.09088008	      1.01095619	      0.29360610	     -9.19287087	      1.40915960	      1.22765860	    -17.15605934	     18.70408698	      6.21691708	     11.81600019	     36.86070118	     -4.65881085	     -2.10285979	    -10.13726470	      7.43059891	      5.43495515	      4.66256478	     -6.35440387	      2.65822404	      6.61219200
      1.03366667	     -8.60979476	     -0.95547916	     -6.35121688	      0.09743219	      1.01048902	      0.29316540	     -9.10964059	      1.15501707	      1.13929838	    -17.93147650	     18.38904786	      6.41843733	     12.03311584	     36.96407564	     -4.50659643	     -2.01458379	    -10.91779582	      6.92993016	      5.06486702	      4.66523283	     -6.22817998	      2.40792559	      6.61604391
      1.03783333	     -8.56036072	     -0.79401190	     -6.40957424	      0.10400260	      1.01026422	      0.29270132	     -9.12196323	      0.87063213	      1.03348023	    -18.69553430	     17.90583262	      6.52673776	     13.78811720	     36.94313139	     -4.30699516	     -1.86885752	    -11.64109375	      6.37785091	      4.62769629	      4.72366280	     -6.23140208	      2.09948855	      6.57255853
      1.04200000	     -8.62569229	     -0.66011336	     -6.49918102	      0.11057111	      1.00989881	      0.29230420	     -8.98500300	      0.63620183	      1.05042253	    -19.50864498	     17.41479305	      6.59628298	     13.88664328	     37.11009675	     -4.18881850	     -1.95978231	    -12.52627352	      5.97180654	      4.54336993	      4.71607699	     -6.07388158	      1.84643285	      6.53330933
      1.04616667	     -8.65116454	     -0.51825778	     -6.55732578	      0.11710436	      1.00964861	      0.29180525	     -8.85196041	      0.38159587	      0.97204393	    -20.38309045	     16.87246555	      6.66320626	     16.68725971	     37.22323236	     -4.02766701	     -1.91714510	    -13.37961004	      5.53091424	      4.24977518	      4.62709307	     -5.97662150	      1.60049410	      6.49004901
      1.05033333	     -8.65002381	     -0.35678421	     -6.60489062	      0.12368004	      1.00950861	      0.29132462	     -8.73097196	      0.10950973	      0.91339883	    -21.28572486	     16.29578090	      6.73142908	     16.71727326	     37.31506750	     -3.85487432	     -1.97162880	    -14.25836764	      5.18821936	      4.13042346	      4.61681707	     -5.90624404	      1.29151573	      6.44033500
      1.05450000	     -8.67665206	     -0.19264024	     -6.64372948	      0.13020342	      1.00934962	      0.29078788	     -8.52676494	     -0.17076284	      0.79942468	    -22.28761880	     15.77918715	      6.87798465	     16.85142935	     37.44240890	     -3.67149109	     -1.97745031	    -15.14555229	      4.84539428	      3.92153049	      4.59236964	     -5.80304915	      1.00991783	      6.39124202
      1.05866667	     -8.66155805	     -0.02900470	     -6.66572202	      0.13674474	      1.00934519	      0.29023909	     -8.36302425	     -0.44593288	      0.73002023	    -23.27914560	     15.10958346	      6.94053377	     16.95843991	     37.51551607	     -3.47814652	     -1.98894263	    -16.01664009	      4.54900585	      3.76878325	      4.57028687	     -5.75928386	      0.69602981	      6.32277579
      1.06283333	     -8.65570629	      0.13227965	     -6.67369287	      0.14324180	      1.00935886	      0.28962636	     -8.14271703	     -0.72496647	      0.61199077	    -24.34781719	     14.42117930	      6.99025722	     20.16131876	     37.59551680	     -3.27189413	     -1.95005310	    -16.87882656	      4.27685451	      3.52202762	      4.04534861	     -5.70118461	      0.42404292	      6.23888978
      1.06700000	     -8.59359406	      0.29615674	     -6.66746105	      0.14973889	      1.00951486	      0.28902508	     -7.96438593	     -1.00516782	      0.51184217	    -25.44799442	     13.69351427	      7.00966533	     20.17205748	     37.61873389	     -3.06177158	     -1.98345999	    -17.75229749	      4.09280724	      3.41750636	      4.03758000	     -5.70938898	      0.12764285	      6.17154112
      1.07116667	     -8.60276902	      0.48396475	     -6.65718915	      0.15621769	      1.00958744	      0.28838785	     -7.65664616	     -1.31078663	      0.38795621	    -26.64244579	     13.02588314	      7.14548048	     20.27337029	     37.69675795	     -2.82436529	     -1.96618667	    -18.57574681	      3.88200387	      3.26485642	      4.00616337	     -5.63738120	     -0.20153591	      6.07034298
      1.07533333	     -8.54679562	      0.65117685	     -6.62727929	      0.16267736	      1.00983167	      0.28773649	     -7.41176597	     -1.59158813	      0.29066130	    -27.83281881	     12.22359095	      7.17992689	     20.35050871	     37.69367077	     -2.58936178	     -1.94927185	    -19.37684184	      3.74350238	      3.15412490	      3.98069033	     -5.64969129	     -0.52013642	      5.97951404
      1.07950000	     -8.51033125	      0.83389955	     -6.58477078	      0.16909636	      1.01005531	      0.28702240	     -7.09384518	     -1.89710809	      0.14348167	    -29.11871359	     11.49361607	      7.26508500	     20.58164421	     37.69687191	     -2.32648813	     -1.90896422	    -20.13947647	      3.59106787	      2.97238413	      3.90848428	     -5.62840148	     -0.81762150	      5.85195988
      1.08366667	     -8.40276195	      1.00702064	     -6.52207514	      0.17548412	      1.01047535	      0.28629316	     -6.84805622	     -2.18960142	      0.02946544	    -30.38263212	     10.59583427	      7.22245109	     23.07775058	     37.59393689	     -2.04371560	     -1.81169829	    -20.83965055	      3.49596059	      2.75537450	      3.10684606	     -5.72212421	     -1.13640669	      5.69355743
      1.08783333	     -8.35922276	      1.16813121	     -6.46426735	      0.18184645	      1.01079417	      0.28557815	     -6.48963018	     -2.46241310	     -0.07723430	    -31.73026371	      9.75566607	      7.23823063	     23.09793369	     37.56430529	     -1.79712732	     -1.81203304	    -21.55217625	      3.45155216	      2.73743232	      3.09121060	     -5.71965799	     -1.42390934	      5.61972137
      1.09200000	     -8.27372009	      1.32452171	     -6.39278962	      0.18815847	      1.01122795	      0.28484754	     -6.15582193	     -2.72971865	     -0.17332067	    -33.09705657	      8.86997944	      7.22262401	     23.11327565	     37.46284823	     -1.53334614	     -1.76422138	    -22.20487672	      3.43317365	      2.66189250	      3.07514917	     -5.78585997	     -1.72355916	      5.51858955
      1.09616667	     -8.19406249	      1.49717554	     -6.30951891	      0.19442793	      1.01167691	      0.28407874	     -5.77948902	     -3.01695075	     -0.28981125	    -34.51845173	      8.01475938	      7.19760121	     23.17422527	     37.34126757	     -1.23523781	     -1.67725533	    -22.79483710	      3.37733108	      2.46966797	      3.01757908	     -5.83882015	     -2.02638103	      5.35998284
      1.10033333	     -8.07211866	      1.63573496	     -6.21786220	      0.20063991	      1.01222116	      0.28330716	     -5.43290957	     -3.26730487	     -0.40023183	    -35.94994582	      7.10509775	      7.13744519	     23.17725356	     37.17136823	     -0.96712838	     -1.62902622	    -23.38330660	      3.42821080	      2.40389735	      3.00225349	     -5.95510187	     -2.28247960	      5.26988807
      1.10450000	     -7.99040197	      1.81973462	     -6.13261849	      0.20682664	      1.01276845	      0.28254960	     -5.00443156	     -3.55935464	     -0.48396746	    -37.42621796	      6.19722011	      7.01637031	     23.20479318	     36.98579304	     -0.64220757	     -1.49484382	    -23.83932229	      3.37971315	      2.18594001	      2.92495213	     -6.01839173	     -2.60170868	      5.08809543
      1.10866667	     -7.87726097	      1.97377368	     -6.04603902	      0.21296263	      1.01338491	      0.28180250	     -4.59392452	     -3.81920732	     -0.56131046	    -38.90791465	      5.25966903	      6.90651216	     23.19584662	     36.76424134	     -0.34796772	     -1.40094184	    -24.29901695	      3.45661780	      2.09577184	      2.88801922	     -6.12651175	     -2.88274499	      4.97346534
